<svg xmlns="http://www.w3.org/2000/svg" viewBox="0 0 1024 1024" role="img" aria-label="SpotifyScreenLyrics app icon">
  <defs>
    <linearGradient id="bg" x1="160" y1="110" x2="860" y2="920" gradientUnits="userSpaceOnUse">
      <stop offset="0" stop-color="#183d35"/>
      <stop offset="0.48" stop-color="#0f211f"/>
      <stop offset="1" stop-color="#071110"/>
    </linearGradient>
    <linearGradient id="panel" x1="230" y1="295" x2="815" y2="735" gradientUnits="userSpaceOnUse">
      <stop offset="0" stop-color="#f7fff9" stop-opacity="0.28"/>
      <stop offset="1" stop-color="#f7fff9" stop-opacity="0.08"/>
    </linearGradient>
    <linearGradient id="line" x1="305" y1="430" x2="745" y2="430" gradientUnits="userSpaceOnUse">
      <stop offset="0" stop-color="#62f6a0"/>
      <stop offset="1" stop-color="#4cc9f0"/>
    </linearGradient>
    <filter id="softShadow" x="-30%" y="-30%" width="160%" height="160%">
      <feDropShadow dx="0" dy="34" stdDeviation="34" flood-color="#000000" flood-opacity="0.38"/>
    </filter>
    <filter id="glow" x="-60%" y="-60%" width="220%" height="220%">
      <feGaussianBlur stdDeviation="18" result="blur"/>
      <feMerge>
        <feMergeNode in="blur"/>
        <feMergeNode in="SourceGraphic"/>
      </feMerge>
    </filter>
    <clipPath id="squircle">
      <rect x="64" y="64" width="896" height="896" rx="204"/>
    </clipPath>
  </defs>

  <rect x="64" y="64" width="896" height="896" rx="204" fill="url(#bg)"/>
  <g clip-path="url(#squircle)">
    <circle cx="807" cy="164" r="238" fill="#48f08d" opacity="0.14"/>
    <circle cx="150" cy="838" r="270" fill="#4cc9f0" opacity="0.10"/>
    <path d="M143 734C255 848 401 908 571 913C716 917 845 879 960 803V960H64V654C86 682 112 710 143 734Z" fill="#020807" opacity="0.34"/>
  </g>

  <g filter="url(#softShadow)">
    <rect x="202" y="252" width="620" height="500" rx="96" fill="#071412" opacity="0.84"/>
    <rect x="226" y="276" width="572" height="452" rx="74" fill="url(#panel)" stroke="#e8fff3" stroke-opacity="0.18" stroke-width="4"/>
  </g>

  <g opacity="0.95">
    <path d="M319 631C371 684 451 712 548 708C638 704 719 673 782 617" fill="none" stroke="#e8fff3" stroke-width="24" stroke-linecap="round" opacity="0.22"/>
    <path d="M318 630C381 584 451 560 526 558C617 555 699 580 772 634" fill="none" stroke="#62f6a0" stroke-width="20" stroke-linecap="round" opacity="0.26"/>
  </g>

  <g filter="url(#glow)">
    <path d="M401 386V578C401 632 357 676 302 676C253 676 216 646 216 607C216 565 257 535 305 535C331 535 354 543 373 557V354C373 327 390 305 416 298L634 241C654 236 674 251 674 272V452C674 507 630 551 575 551C526 551 489 521 489 482C489 440 530 410 578 410C604 410 627 418 646 432V309L401 374V386Z" fill="#62f6a0"/>
    <path d="M401 386V578C401 632 357 676 302 676C253 676 216 646 216 607C216 565 257 535 305 535C331 535 354 543 373 557V354C373 327 390 305 416 298L634 241C654 236 674 251 674 272V452C674 507 630 551 575 551C526 551 489 521 489 482C489 440 530 410 578 410C604 410 627 418 646 432V309L401 374V386Z" fill="#62f6a0" opacity="0.98"/>
  </g>

  <g>
    <rect x="324" y="423" width="388" height="38" rx="19" fill="url(#line)"/>
    <rect x="324" y="500" width="305" height="34" rx="17" fill="#f4fff8" opacity="0.88"/>
    <rect x="324" y="575" width="372" height="34" rx="17" fill="#f4fff8" opacity="0.50"/>
    <rect x="324" y="650" width="236" height="30" rx="15" fill="#f4fff8" opacity="0.30"/>
  </g>

  <path d="M258 786H766" stroke="#62f6a0" stroke-width="18" stroke-linecap="round" opacity="0.32"/>
  <path d="M278 802H746" stroke="#4cc9f0" stroke-width="10" stroke-linecap="round" opacity="0.24"/>
</svg>
